<?xml version="1.0" encoding="iso-8859-1"?>
<!-- Uploaded to: SVG Repo, www.svgrepo.com, Generator: SVG Repo Mixer Tools -->
<svg height="800px" width="800px" version="1.1" id="Layer_1" xmlns="http://www.w3.org/2000/svg" xmlns:xlink="http://www.w3.org/1999/xlink" 
	 viewBox="0 0 512 512" xml:space="preserve">
<g>
	<polyline style="fill:#999999;" points="261.146,75.998 261.146,498.276 250.854,498.276 250.854,76.011 	"/>
	<path style="fill:#999999;" d="M256.037,512c-2.21,0-4.174-1.411-4.879-3.507l-104.72-311.571l9.756-3.279l99.84,297.053
		l99.762-297.049l9.757,3.277L260.916,508.492C260.212,510.587,258.248,512,256.037,512z"/>
	<path style="fill:#999999;" d="M256.075,511.996c-1.754,0-3.386-0.893-4.332-2.369L51.969,198.057
		c-0.103-0.161-0.196-0.326-0.28-0.495l-0.808-1.634l9.225-4.565l0.682,1.378l195.283,304.567l196.103-306.437l8.669,5.549
		L260.409,509.624c-0.944,1.477-2.578,2.371-4.332,2.372C256.076,511.996,256.076,511.996,256.075,511.996z"/>
</g>
<path style="fill:#06B559;" d="M463.37,207.37c-26.799-27.404-69.887-28.986-98.564-4.76c-1.763,1.492-3.474,3.075-5.121,4.76
	c-1.66-1.698-3.384-3.294-5.172-4.786c-13.445-11.36-30.067-17.034-46.677-17.034c-16.622,0-33.232,5.687-46.69,17.047
	c-1.775,1.48-3.487,3.075-5.146,4.773c-1.66-1.685-3.371-3.281-5.146-4.773c-13.458-11.36-30.08-17.047-46.703-17.047
	c-16.61,0-33.219,5.674-46.664,17.021c-1.788,1.505-3.512,3.101-5.172,4.799c-1.647-1.685-3.358-3.268-5.121-4.747
	c-13.458-11.373-30.093-17.073-46.728-17.073c-18.81,0-37.619,7.282-51.836,21.82c0-104.984,78.005-191.738,179.219-205.478
	C237.049,0.643,246.454,0,256,0c9.572,0,18.977,0.643,28.202,1.904C385.391,15.658,463.37,102.411,463.37,207.37z"/>
<g>
	<path style="fill:#0B9B53;" d="M256,207.37V0c0.45,0,0.901,0,1.338,0.013C313.986,1.454,359.685,93.74,359.685,207.37
		c-14.217-14.538-33.039-21.82-51.849-21.82C289.026,185.549,270.217,192.831,256,207.37z"/>
	<path style="fill:#0B9B53;" d="M48.631,207.37c0-114.08,92.118-206.649,206.032-207.357
		C198.014,1.454,152.315,93.74,152.315,207.37c-14.217-14.538-33.039-21.82-51.849-21.82S62.847,192.831,48.631,207.37z"/>
</g>
<path style="fill:#088443;" d="M364.805,202.609c-1.763,1.492-3.474,3.075-5.121,4.76c-1.66-1.698-3.384-3.294-5.172-4.786
	c-1.209-105.28-42.29-191.648-93.366-197.154v197.167c-1.775,1.48-3.487,3.075-5.146,4.773c-1.66-1.685-3.371-3.281-5.146-4.773
	V5.442c-51.09,5.507-92.144,91.874-93.366,197.128c-1.788,1.505-3.512,3.101-5.172,4.799c-1.647-1.685-3.358-3.268-5.121-4.747
	c0.592-53.933,11.348-104.65,30.44-143.285c13.895-28.124,31.186-47.732,50.215-57.445C237.049,0.643,246.454,0,256,0
	c9.572,0,18.977,0.643,28.202,1.904c19.016,9.726,36.281,29.334,50.163,57.433C353.445,97.972,364.201,148.689,364.805,202.609z"/>
</svg>